PathFileType	4	(X/Y/Z)	Walk9.trc
DataRate	CameraRate	NumFrames	NumMarkers	Units	OrigDataRate	OrigDataStartFrame	OrigNumFrames
200.000000	200.000000	4	59	mm	200.000000	367	523
Frame#	Times		RFHD		RACR1		RUA1		RElbowM		RFA1		RWRU		LACR1		LUA1		LFA1		LWRU		RTH1		LTH2		LFHD		LTB2		RBack		RTH2		LTH4		LASI		CLAV		RTH3		RTB3		LCAR		RTB2		RTB1		LWRR		LTH3		RCAR		C7		RTB4		RElbow		RASI		T10		LBHD		LLFC		RWRR		RBHD		STRN		RPSI		LTB4		LToe		LTB1		LTH1		LElbowM		LElbow		LMMAL		RTH4		LPSI		LCAL		RMT5		LTB3		LMT5		LMT1		RLFC		LLMAL		RMT1		RToe		RCAL		RLMAL		RMMAL
			X1	Y1	Z1	X2	Y2	Z2	X3	Y3	Z3	X4	Y4	Z4	X5	Y5	Z5	X6	Y6	Z6	X7	Y7	Z7	X8	Y8	Z8	X9	Y9	Z9	X10	Y10	Z10	X11	Y11	Z11	X12	Y12	Z12	X13	Y13	Z13	X14	Y14	Z14	X15	Y15	Z15	X16	Y16	Z16	X17	Y17	Z17	X18	Y18	Z18	X19	Y19	Z19	X20	Y20	Z20	X21	Y21	Z21	X22	Y22	Z22	X23	Y23	Z23	X24	Y24	Z24	X25	Y25	Z25	X26	Y26	Z26	X27	Y27	Z27	X28	Y28	Z28	X29	Y29	Z29	X30	Y30	Z30	X31	Y31	Z31	X32	Y32	Z32	X33	Y33	Z33	X34	Y34	Z34	X35	Y35	Z35	X36	Y36	Z36	X37	Y37	Z37	X38	Y38	Z38	X39	Y39	Z39	X40	Y40	Z40	X41	Y41	Z41	X42	Y42	Z42	X43	Y43	Z43	X44	Y44	Z44	X45	Y45	Z45	X46	Y46	Z46	X47	Y47	Z47	X48	Y48	Z48	X49	Y49	Z49	X50	Y50	Z50	X51	Y51	Z51	X52	Y52	Z52	X53	Y53	Z53	X54	Y54	Z54	X55	Y55	Z55	X56	Y56	Z56	X57	Y57	Z57	X58	Y58	Z58	X59	Y59	Z59

367	1.835	71.284	1412.5	32.569	-32.39	1210.3	149.33	-43.96	1072	233.53	-113.07	915.42	196.52	-10.887	829.77	283.11	-32.309	732.13	311.03	-30.202	1201.1	-216.03	-1.5077	1041.9	-287.29	91.653	869.92	-310.97	153.22	778.27	-307.69	-16.361	627.09	186.58	-25.009	558.92	-196.93	80.935	1423.7	-63.008	-187.1	215.18	-145.98	-146.66	1140.9	88.082	57.288	566.45	145.44	-79.068	555.67	-219.74	7.942	802.47	-185.21	47.631	1174.9	-28.213	26.286	466.44	136.12	126	133.49	32.252	212	768.98	-293.62	79.59	207.24	93.135	104.36	302.42	51.706	174.09	810.32	-257.65	-88.485	472.16	-194.31	14.612	676.59	304.89	-93.913	1261	-30.569	112.18	215.94	41.89	-65.895	948.67	270.26	35.669	818.93	136.98	-181.68	1062.7	-15.325	-48.067	1349.9	-93.752	-79.838	370.06	-163.8	6.1487	729.51	249.3	-59.86	1343.6	38.43	97.409	1068	-27.161	-221.98	840.82	50.824	-169.19	205.53	-87.509	-161.96	26.011	-73.447	-110.79	270.32	-95.877	-70.774	641.06	-235.22	-45.667	888.91	-249.33	-14.162	920.46	-312.58	-276.87	110.41	-31.623	3.2187	545.45	163.46	-239.09	849.17	-54.745	-347.86	116.81	-63.853	183.78	28.101	85.046	-220.03	140.01	-81.112	-255.75	31.299	-128.61	-209.42	33.555	-47.138	33.776	388.08	107.49	-306.04	106.16	-109.53	207.23	46.056	-2.2286	256.24	56.707	34.178	41.109	27.458	18.389	102.8	73.011	-15.928	92.597	59.066	66.017
368	1.84	76.882	1412.7	33.555	-26.048	1209.9	150.66	-37.423	1071.5	234.55	-106.47	914.88	197.32	-4.225	829	283.5	-25.726	731.36	311.4	-25.03	1201.3	-214.8	3.1745	1042.1	-286.14	95.854	869.83	-310.13	157.01	777.89	-307.27	-9.8981	627.83	186.46	-17.627	559.54	-197.07	86.377	1423.8	-62.027	-180.78	217.18	-146.82	-140.59	1140.9	89.7	63.682	567.66	144.67	-71.649	555.69	-219.89	13.095	802.8	-184.49	53.236	1174.9	-27.182	33.248	467.43	135.67	127.82	132.66	32.249	215.79	768.35	-293.36	82.44	206.87	93.324	108.34	301.79	52.045	178.16	809.77	-257.22	-80.014	471.99	-194.94	21.088	675.77	305.04	-88.143	1261.2	-29.014	115.07	215.26	42.073	-59.106	947.99	270.99	42.112	818.66	136.88	-176.15	1062.9	-13.874	-42.564	1349.9	-92.585	-70.665	369.86	-164.95	12.534	728.75	249.56	-54.177	1343.6	39.618	103.03	1068	-26.164	-216.27	840.74	51.761	-162.58	206.85	-88.574	-162.07	25.995	-73.532	-102.81	270.35	-97.255	-64.369	641.21	-235.05	-41.212	889.21	-248.16	-9.7995	920.73	-311.51	-271.98	114.09	-32.188	9.9397	546.36	163.14	-233.69	848.52	-53.942	-342.7	122.78	-63.924	184.02	26.559	85.365	-214.79	142.48	-81.973	-254.52	33.367	-128.47	-208.43	33.933	-47.236	38.76	388.32	107.96	-301.81	110.68	-109.78	207.86	43.541	-2.5384	257.4	53.217	33.712	41.318	28.084	18.384	103.75	72.473	-16.035	93.346	58.828	65.955
369	1.845	82.49	1412.9	34.544	-19.67	1209.7	151.97	-30.798	1071	235.55	-99.855	914.41	198.14	2.4903	828.32	283.88	-19.081	730.67	311.76	-19.836	1201.7	-213.57	7.8097	1042.3	-284.99	99.935	869.74	-309.3	160.61	777.45	-306.88	-3.3391	628.69	186.38	-10.052	560.26	-197.21	91.83	1424	-61.044	-174.11	219.31	-147.7	-134.51	1141	91.314	70.147	568.98	143.89	-64.016	555.76	-220.09	18.24	803.2	-183.76	58.829	1174.9	-26.16	40.314	468.52	135.35	129.52	131.86	32.274	219.4	767.64	-293.15	85.188	206.52	93.559	112.25	301.17	52.451	182.09	809.14	-256.83	-71.252	471.87	-195.61	27.622	675	305.16	-82.367	1261.4	-27.466	117.85	214.61	42.302	-52.255	947.38	271.71	48.511	818.54	136.79	-170.65	1063.2	-12.447	-37.058	1350	-91.418	-61.177	369.74	-166.13	18.961	728.06	249.78	-48.489	1343.7	40.806	108.62	1068.1	-25.127	-210.59	840.72	52.659	-155.58	208.26	-89.709	-162.05	26.002	-73.692	-94.49	270.46	-98.706	-57.833	641.42	-234.89	-36.828	889.57	-246.93	-5.5281	921.04	-310.41	-266.63	117.87	-32.808	16.754	547.39	162.89	-228.31	847.86	-53.166	-337.05	128.88	-64.009	184.16	25.251	85.7	-209.13	145.06	-82.898	-252.98	35.653	-128.36	-207.23	34.391	-47.371	43.704	388.6	108.46	-297.14	115.35	-110.06	208.34	41.255	-2.8384	258.38	50.046	33.245	41.46	28.661	18.395	104.57	72	-16.129	93.99	58.628	65.901
370	1.85	88.107	1413.1	35.534	-13.266	1209.4	153.26	-24.086	1070.6	236.54	-93.214	914.04	198.96	9.2579	827.71	284.23	-12.371	730.05	312.1	-14.627	1202.1	-212.35	12.401	1042.6	-283.82	103.9	869.63	-308.46	164.03	776.95	-306.53	3.2882	629.65	186.33	-2.3044	561.09	-197.35	97.294	1424.2	-60.058	-167.08	221.56	-148.61	-128.43	1141.2	92.914	76.65	570.36	143.14	-56.184	555.88	-220.31	23.378	803.65	-183.04	64.404	1175	-25.151	47.42	469.66	135.17	131.1	131.1	32.316	222.8	766.83	-293.01	87.835	206.18	93.829	116.08	300.57	52.914	185.87	808.45	-256.48	-62.231	471.81	-196.34	34.215	674.31	305.23	-76.598	1261.7	-25.933	120.52	213.99	42.565	-45.347	946.85	272.44	54.862	818.59	136.7	-165.19	1063.6	-11.05	-31.551	1350	-90.25	-51.417	369.73	-167.33	25.43	727.45	249.98	-42.799	1343.8	41.994	114.19	1068.2	-24.057	-204.95	840.77	53.514	-148.23	209.75	-90.9	-161.84	26.038	-73.949	-85.853	270.65	-100.21	-51.17	641.68	-234.75	-32.515	890	-245.66	-1.3451	921.41	-309.29	-260.84	121.7	-33.478	23.616	548.49	162.73	-222.95	847.19	-52.419	-330.93	135.05	-64.113	184.24	24.171	86.03	-203.09	147.73	-83.88	-251.1	38.148	-128.3	-205.75	34.943	-47.558	48.604	388.9	108.98	-292.03	120.13	-110.37	208.7	39.209	-3.1351	259.21	47.21	32.773	41.554	29.183	18.418	105.27	71.592	-16.213	94.545	58.465	65.851
